<svg xmlns="http://www.w3.org/2000/svg" width="114.106" height="32.662" viewBox="0 0 114.106 32.662">
  <g id="Group_1" data-name="Group 1" transform="translate(-411.854 -98.622)">
    <path id="Path_1" data-name="Path 1" d="M521.847,122.364c.028-.363.047-.733.049-1.118,0-.018,0-.034,0-.052v-.023c0-.489-.031-.962-.075-1.427-.01-.1-.024-.191-.035-.288q-.07-.584-.184-1.139c-.016-.076-.032-.153-.048-.228a9.9,9.9,0,0,0-10.078-8.054c-5.994,0-10.734,4.248-10.734,11.494a13.708,13.708,0,0,0,.374,3.2h4.106a10.943,10.943,0,0,1-.5-3.338c0-4.114,2.013-8.408,6.665-8.408a5.6,5.6,0,0,1,4.531,2.157l-.006.016a8.98,8.98,0,0,1,1.7,3.742l0,.006c.056.26.1.523.139.784l.007.045c.036.256.062.512.082.766l0,.039c.019.261.027.521.027.775a11.084,11.084,0,0,1-.519,3.416h.009c-.975,3.03-3.256,5-6.063,5a5.869,5.869,0,0,1-1.182-.126l-1.152,2.873a11.322,11.322,0,0,0,2.155.2,10.379,10.379,0,0,0,10.633-9.449c.014-.095.028-.188.039-.283C521.814,122.761,521.832,122.564,521.847,122.364Z" transform="translate(-10.931 -1.404)" fill="#e50447"/>
    <path id="Path_2" data-name="Path 2" d="M471.916,110.665c-.258-.023-1.4-.043-1.67-.043a7.533,7.533,0,0,0-5.277,2.012c-1.834,1.744-2.5,4.518-2.5,7.559v12.076h3.891v-12.21c0-3.31.832-6.261,4.2-6.261h1.357Z" transform="translate(-6.223 -1.476)" fill="#333"/>
    <path id="Path_3" data-name="Path 3" d="M420.107,119.333l-2.249,5.606-6-15.793h4.2Zm2.078,4.893h-.037l-2.342,5.839.276.728h3.757l8.5-21.647h-4.115Zm48,6.567h3.936V109.146h-3.936Zm-26.872-22.139c-6.306,0-10.152,5.144-10.152,11.673s3.98,10.912,10.644,10.912a17.529,17.529,0,0,0,7.2-1.341l-.67-2.818a14.233,14.233,0,0,1-5.994,1.118c-3.444,0-6.474-1.678-7.241-5.662a12.3,12.3,0,0,1,.177-6.209c.7-2.392,2.458-4.855,5.722-4.855,4.428,0,5.5,3.891,5.457,6.4H436.1l0,2.79,16.029.028a14.668,14.668,0,0,0,.134-1.834C452.259,114.871,450.38,108.654,443.314,108.654Zm44.658-10.032a7.536,7.536,0,0,0-5.278,2.012c-1.833,1.744-2.5,4.518-2.5,7.559v22.6h3.891V112.322h3.581v-3.133h-3.581v-1.13c0-3.31.833-6.261,4.2-6.261h1.357V98.665C489.384,98.642,488.247,98.622,487.972,98.622Zm32.308,19.6c-2.818-1.074-4.115-1.879-4.115-3.668,0-1.61,1.3-2.952,3.623-2.952a8.422,8.422,0,0,1,4.265,1.156l1.117-2.782a10.82,10.82,0,0,0-5.292-1.326c-4.652,0-7.469,2.863-7.469,6.351,0,2.593,1.833,4.74,5.724,6.127,2.907,1.073,4.025,2.1,4.025,3.98,0,1.789-1.342,3.22-4.2,3.22a8.956,8.956,0,0,1-2.191-.293l-1.132,2.825a14.063,14.063,0,0,0,3.234.375c5.143,0,8.095-2.683,8.095-6.485C525.96,121.535,524.037,119.657,520.281,118.226Z" transform="translate(0 0)" fill="#333"/>
  </g>
</svg>
